<svg width="172" height="38" viewBox="0 0 172 38" fill="none"
  xmlns="http://www.w3.org/2000/svg">
  <path opacity="0.5" d="M40.0652 0.256714L30.2601 34.9917C30.2102 35.1494 30.0108 35.1967 29.8945 35.0863L23.3301 28.8583L28.2492 11.4514C28.2991 11.2937 28.1495 11.1518 27.9833 11.1991L9.63617 15.8662L3.10498 9.66969C2.98865 9.55932 3.03851 9.37011 3.20469 9.32281L39.7993 0.00444022C39.9655 -0.027094 40.115 0.11481 40.0652 0.256714Z" fill="#00B37E"/>
  <path opacity="0.5" d="M23.3297 28.858L20.8037 37.8452C20.7538 38.0029 20.5544 38.0502 20.4381 37.9398L0.0634003 18.6251C-0.0529313 18.5147 -0.00307518 18.3255 0.163113 18.2782L9.63583 15.8658L23.3297 28.858Z" fill="#00B37E"/>
  <path d="M28.2484 11.4511L23.3292 28.858L9.63533 15.8659L27.9825 11.1988C28.1487 11.1515 28.2982 11.2934 28.2484 11.4511Z" fill="#00B37E"/>
  <path d="M63.2741 27.5H59.3139L59.3389 24.5767H63.2741C64.2569 24.5767 65.0856 24.356 65.7602 23.9146C66.4348 23.4648 66.9428 22.811 67.2843 21.9532C67.6341 21.0953 67.809 20.0584 67.809 18.8425V17.9555C67.809 17.0227 67.7091 16.2023 67.5092 15.4944C67.3176 14.7865 67.0303 14.191 66.6472 13.7079C66.2641 13.2249 65.7935 12.8626 65.2355 12.621C64.6775 12.3712 64.0362 12.2462 63.3116 12.2462H59.2389V9.31043H63.3116C64.5276 9.31043 65.6394 9.51865 66.6472 9.93507C67.6633 10.3432 68.5419 10.9303 69.2832 11.6966C70.0244 12.4628 70.5949 13.3789 70.9947 14.445C71.4028 15.5027 71.6068 16.6812 71.6068 17.9805V18.8425C71.6068 20.1334 71.4028 21.3119 70.9947 22.3779C70.5949 23.444 70.0244 24.3601 69.2832 25.1264C68.5503 25.8843 67.6716 26.4714 66.6472 26.8879C65.6311 27.296 64.5067 27.5 63.2741 27.5ZM61.4377 9.31043V27.5H57.6898V9.31043H61.4377ZM81.6136 9.31043V27.5H77.8782V9.31043H81.6136ZM87.2104 9.31043V12.2462H72.3689V9.31043H87.2104ZM96.7549 9.31043H99.9281L104.6 22.6653L109.273 9.31043H112.446L105.875 27.5H103.326L96.7549 9.31043ZM95.0434 9.31043H98.2041L98.7788 22.328V27.5H95.0434V9.31043ZM110.997 9.31043H114.17V27.5H110.422V22.328L110.997 9.31043ZM116.656 20.8788V20.6164C116.656 19.6253 116.798 18.7134 117.081 17.8805C117.364 17.0393 117.776 16.3106 118.318 15.6943C118.859 15.078 119.525 14.5991 120.316 14.2576C121.108 13.9078 122.015 13.7329 123.04 13.7329C124.064 13.7329 124.976 13.9078 125.776 14.2576C126.575 14.5991 127.246 15.078 127.787 15.6943C128.337 16.3106 128.753 17.0393 129.036 17.8805C129.32 18.7134 129.461 19.6253 129.461 20.6164V20.8788C129.461 21.8616 129.32 22.7735 129.036 23.6147C128.753 24.4476 128.337 25.1763 127.787 25.801C127.246 26.4173 126.579 26.8962 125.788 27.2377C124.997 27.5791 124.089 27.7499 123.065 27.7499C122.04 27.7499 121.128 27.5791 120.329 27.2377C119.538 26.8962 118.867 26.4173 118.318 25.801C117.776 25.1763 117.364 24.4476 117.081 23.6147C116.798 22.7735 116.656 21.8616 116.656 20.8788ZM120.254 20.6164V20.8788C120.254 21.4451 120.304 21.974 120.404 22.4654C120.504 22.9568 120.662 23.3899 120.879 23.7646C121.103 24.1311 121.395 24.4184 121.753 24.6266C122.111 24.8349 122.548 24.939 123.065 24.939C123.565 24.939 123.993 24.8349 124.352 24.6266C124.71 24.4184 124.997 24.1311 125.214 23.7646C125.43 23.3899 125.588 22.9568 125.688 22.4654C125.797 21.974 125.851 21.4451 125.851 20.8788V20.6164C125.851 20.0668 125.797 19.5504 125.688 19.0673C125.588 18.576 125.426 18.1429 125.201 17.7681C124.985 17.385 124.697 17.0851 124.339 16.8686C123.981 16.6521 123.548 16.5438 123.04 16.5438C122.532 16.5438 122.099 16.6521 121.741 16.8686C121.391 17.0851 121.103 17.385 120.879 17.7681C120.662 18.1429 120.504 18.576 120.404 19.0673C120.304 19.5504 120.254 20.0668 120.254 20.6164ZM135.195 16.8686V27.5H131.597V13.9828H134.97L135.195 16.8686ZM134.671 20.2666H133.696C133.696 19.2672 133.825 18.3677 134.084 17.5682C134.342 16.7603 134.704 16.0732 135.17 15.5069C135.637 14.9322 136.191 14.495 136.832 14.1951C137.482 13.887 138.206 13.7329 139.006 13.7329C139.639 13.7329 140.217 13.8245 140.742 14.0077C141.267 14.191 141.717 14.4825 142.091 14.8822C142.475 15.282 142.766 15.8109 142.966 16.4688C143.174 17.1268 143.278 17.9305 143.278 18.8799V27.5H139.655V18.8675C139.655 18.2678 139.572 17.8014 139.405 17.4683C139.239 17.1351 138.993 16.9019 138.668 16.7687C138.352 16.6271 137.96 16.5563 137.494 16.5563C137.011 16.5563 136.59 16.6521 136.232 16.8436C135.882 17.0352 135.591 17.3017 135.358 17.6432C135.133 17.9763 134.962 18.3677 134.846 18.8175C134.729 19.2672 134.671 19.7503 134.671 20.2666ZM152.236 27.7499C151.186 27.7499 150.245 27.5833 149.412 27.2501C148.579 26.9087 147.871 26.4381 147.288 25.8385C146.714 25.2388 146.272 24.5434 145.964 23.7521C145.656 22.9526 145.502 22.1031 145.502 21.2036V20.7039C145.502 19.6795 145.648 18.7425 145.939 17.893C146.231 17.0435 146.647 16.3064 147.188 15.6818C147.738 15.0571 148.404 14.5782 149.187 14.2451C149.97 13.9036 150.853 13.7329 151.836 13.7329C152.794 13.7329 153.643 13.8911 154.384 14.2076C155.126 14.5241 155.746 14.9739 156.246 15.5569C156.754 16.1398 157.137 16.8394 157.395 17.6556C157.653 18.4635 157.782 19.363 157.782 20.3541V21.8532H147.039V19.4546H154.247V19.1798C154.247 18.6801 154.155 18.2345 153.972 17.843C153.797 17.4433 153.531 17.1268 153.173 16.8936C152.814 16.6604 152.356 16.5438 151.798 16.5438C151.324 16.5438 150.916 16.6479 150.574 16.8561C150.233 17.0643 149.954 17.3558 149.737 17.7306C149.529 18.1054 149.371 18.5468 149.262 19.0548C149.162 19.5546 149.112 20.1042 149.112 20.7039V21.2036C149.112 21.745 149.187 22.2447 149.337 22.7028C149.495 23.1608 149.716 23.5564 149.999 23.8896C150.291 24.2227 150.641 24.4809 151.049 24.6641C151.465 24.8474 151.936 24.939 152.46 24.939C153.11 24.939 153.714 24.814 154.272 24.5642C154.838 24.306 155.325 23.9187 155.734 23.4024L157.483 25.3013C157.199 25.7094 156.812 26.1008 156.321 26.4756C155.838 26.8504 155.255 27.1585 154.572 27.4001C153.889 27.6333 153.11 27.7499 152.236 27.7499ZM163.667 25.9759L167.252 13.9828H171.112L165.678 29.5363C165.561 29.8778 165.403 30.2443 165.203 30.6357C165.012 31.0271 164.749 31.3978 164.416 31.7476C164.091 32.1057 163.679 32.3972 163.179 32.6221C162.688 32.8469 162.084 32.9594 161.368 32.9594C161.026 32.9594 160.747 32.9385 160.531 32.8969C160.314 32.8553 160.056 32.797 159.756 32.722V30.086C159.848 30.086 159.944 30.086 160.044 30.086C160.144 30.0943 160.239 30.0985 160.331 30.0985C160.806 30.0985 161.193 30.0444 161.493 29.9361C161.793 29.8278 162.034 29.6613 162.217 29.4364C162.401 29.2198 162.546 28.9367 162.655 28.5869L163.667 25.9759ZM162.167 13.9828L165.103 23.7771L165.615 27.5874L163.167 27.8498L158.307 13.9828H162.167Z" fill="#E1E1E6"/>
</svg>